<svg width="769" height="371" viewBox="0 0 769 371" fill="none" xmlns="http://www.w3.org/2000/svg">
<g clip-path="url(#clip0)">
<path d="M460.119 289.124C523.117 289.124 574.188 238.148 574.188 175.265C574.188 112.383 523.117 61.4067 460.119 61.4067C397.121 61.4067 346.051 112.383 346.051 175.265C346.051 238.148 397.121 289.124 460.119 289.124Z" fill="#F4F6F8"/>
<path d="M316.572 358.207C378.155 358.207 428.077 308.376 428.077 246.907C428.077 185.438 378.155 135.607 316.572 135.607C254.99 135.607 205.067 185.438 205.067 246.907C205.067 308.376 254.99 358.207 316.572 358.207Z" fill="#F4F6F8"/>
<path d="M167 59C179.703 59 190 48.7025 190 36C190 23.2975 179.703 13 167 13C154.297 13 144 23.2975 144 36C144 48.7025 154.297 59 167 59Z" fill="white"/>
<path d="M672.876 296.8C689.156 296.8 702.354 283.626 702.354 267.376C702.354 251.125 689.156 237.952 672.876 237.952C656.595 237.952 643.397 251.125 643.397 267.376C643.397 283.626 656.595 296.8 672.876 296.8Z" fill="white"/>
<path d="M475.852 95.5334L489.597 76.7583M392.19 209.807L460.01 117.171L392.19 209.807Z" stroke="#0149FF" stroke-width="2" stroke-linecap="round"/>
<path d="M310.369 323.483L294.784 342.855M392.19 207.248L325.954 300.236L392.19 207.248Z" stroke="#0149FF" stroke-width="2" stroke-linecap="round"/>
<path d="M343.488 112.579L294.784 10.2344M389.628 209.807L356.304 138.165L389.628 209.807Z" stroke="#FF458B" stroke-width="2" stroke-linecap="round"/>
<path d="M463.271 262.259L538.301 317.269M392.191 207.248L443.527 246.541L392.191 207.248Z" stroke="#FF458B" stroke-width="2" stroke-linecap="round"/>
<path d="M222.338 128.403L184.561 110.021M389.627 209.807L279.557 156.246L389.627 209.807Z" stroke="#FFC600" stroke-width="2" stroke-linecap="round"/>
<path d="M391.582 210.388L626.064 127.349" stroke="#00E567" stroke-width="2" stroke-linecap="round"/>
<path d="M396.035 198.293L284.53 266.096" stroke="#00E567" stroke-width="2" stroke-linecap="round"/>
<path fill-rule="evenodd" clip-rule="evenodd" d="M574.188 76.7583H610.074V112.579H574.188V76.7583Z" fill="#00E567"/>
<path fill-rule="evenodd" clip-rule="evenodd" d="M205.067 20.4688H230.701V46.055H205.067V20.4688Z" fill="#FF458B"/>
<path fill-rule="evenodd" clip-rule="evenodd" d="M384.5 355.648H399.88V371H384.5V355.648Z" fill="#FF458B"/>
<path fill-rule="evenodd" clip-rule="evenodd" d="M112.787 58.8481H128.167V74.1999H112.787V58.8481Z" fill="#00E567"/>
<path fill-rule="evenodd" clip-rule="evenodd" d="M602.384 217.482H617.764V232.834H602.384V217.482Z" fill="#0149FF"/>
<path fill-rule="evenodd" clip-rule="evenodd" d="M128.167 240.51H143.547V255.862H128.167V240.51Z" fill="#0149FF"/>
<path fill-rule="evenodd" clip-rule="evenodd" d="M686.974 150.958H702.354V166.31H686.974V150.958Z" fill="#FFC600"/>
<path fill-rule="evenodd" clip-rule="evenodd" d="M158.927 173.986H184.56V199.573H158.927V173.986Z" fill="#FFC600"/>
<path fill-rule="evenodd" clip-rule="evenodd" d="M397.211 71.6416L458.838 133.155V278.89H312.728V71.6416L397.211 71.6416Z" fill="#C5CBDB"/>
<path d="M375.529 135.607H349.896C346.356 135.607 343.487 138.471 343.487 142.003C343.487 145.536 346.356 148.4 349.896 148.4H375.529C379.068 148.4 381.937 145.536 381.937 142.003C381.937 138.471 379.068 135.607 375.529 135.607Z" fill="white"/>
<path d="M421.669 166.31H349.896C346.356 166.31 343.487 169.174 343.487 172.707C343.487 176.239 346.356 179.103 349.896 179.103H421.669C425.208 179.103 428.077 176.239 428.077 172.707C428.077 169.174 425.208 166.31 421.669 166.31Z" fill="white"/>
<path d="M421.669 197.014H349.896C346.356 197.014 343.487 199.878 343.487 203.41C343.487 206.943 346.356 209.807 349.896 209.807H421.669C425.208 209.807 428.077 206.943 428.077 203.41C428.077 199.878 425.208 197.014 421.669 197.014Z" fill="white"/>
<path d="M421.669 227.717H349.896C346.356 227.717 343.487 230.581 343.487 234.114C343.487 237.647 346.356 240.51 349.896 240.51H421.669C425.208 240.51 428.077 237.647 428.077 234.114C428.077 230.581 425.208 227.717 421.669 227.717Z" fill="white"/>
<path fill-rule="evenodd" clip-rule="evenodd" d="M397.211 133.154V71.6409L458.838 133.154L397.211 133.154Z" fill="#7E8B9C"/>
</g>
<defs>
<clipPath id="clip0">
<rect width="769" height="371" fill="white"/>
</clipPath>
</defs>
</svg>
