<svg width="19" height="25" viewBox="0 0 19 25" fill="none" xmlns="http://www.w3.org/2000/svg">
<g clip-path="url(#clip0)">
<path d="M18.5404 7.02628C18.6936 7.17949 18.6845 7.40018 18.5721 7.54566L18.5722 22.6575C18.5722 23.5754 17.8442 24.3233 16.9341 24.3554L16.8732 24.3564H1.82985C0.911921 24.3564 0.164016 23.6285 0.131932 22.7184L0.130859 22.6575V1.82985C0.130859 0.911921 0.85881 0.164016 1.76891 0.131932L1.82985 0.130859H11.4826C11.5736 0.130859 11.6613 0.162486 11.731 0.21965L11.7598 0.245695L18.5404 7.02628ZM11.1735 0.914747L1.82985 0.915008C1.34144 0.915008 0.94242 1.29775 0.916362 1.77965L0.915008 1.82985V22.6575C0.915008 23.1459 1.29775 23.5449 1.77965 23.5709L1.82985 23.5723H16.8732C17.3616 23.5723 17.7606 23.1896 17.7867 22.7077L17.788 22.6575L17.7878 7.69554L11.5656 7.69559C11.3618 7.69559 11.1943 7.5401 11.1753 7.34127L11.1735 7.30352L11.1735 0.914747ZM11.9577 1.55252V6.91139L17.3163 6.91113L11.9577 1.55252Z" fill="#7E8B9C"/>
</g>
<defs>
<clipPath id="clip0">
<rect width="18.8196" height="24.57" fill="white"/>
</clipPath>
</defs>
</svg>
