<svg width="23" height="29" viewBox="0 0 23 29" fill="none" xmlns="http://www.w3.org/2000/svg">
<g clip-path="url(#clip0)">
<path d="M21.8828 8.29297C22.0637 8.47381 22.0529 8.73428 21.9202 8.906L21.9204 26.7425C21.9204 27.8259 21.0612 28.7087 19.987 28.7465L19.9151 28.7478H2.15937C1.07594 28.7478 0.193187 27.8886 0.155319 26.8144L0.154053 26.7425V2.15962C0.154053 1.07618 1.01325 0.193431 2.08745 0.155563L2.15937 0.154297H13.5525C13.6599 0.154297 13.7634 0.191625 13.8458 0.259097L13.8797 0.289838L21.8828 8.29297ZM13.1877 1.07952L2.15937 1.07983C1.5829 1.07983 1.11194 1.53157 1.08118 2.10037L1.07958 2.15962V26.7425C1.07958 27.3189 1.53133 27.7899 2.10013 27.8207L2.15937 27.8223H19.9151C20.4915 27.8223 20.9625 27.3705 20.9933 26.8017L20.9949 26.7425L20.9946 9.0829L13.6505 9.08296C13.4099 9.08296 13.2123 8.89943 13.1898 8.66476L13.1877 8.62019L13.1877 1.07952ZM10.0407 11.9455C11.7232 11.1114 13.6961 11.1118 15.3755 11.9409L15.4922 12L17.7912 13.1977C17.9314 13.2707 18.0238 13.4098 18.0382 13.5653L18.0401 13.6081V16.3946C18.0401 16.5533 17.959 16.6998 17.827 16.7843L17.7897 16.8058L15.4941 17.9911L15.4944 19.0343C15.4944 19.5909 15.0733 20.0491 14.5323 20.1077L14.4739 20.1125L14.4146 20.1141C14.283 20.1141 14.1527 20.09 14.0301 20.0433L13.9575 20.0125L12.7323 19.4399L12.7125 19.4876C12.559 19.8256 12.2363 20.0706 11.8526 20.1144L11.7881 20.1198L11.7288 20.1214C11.5993 20.1214 11.471 20.0981 11.3501 20.0528L11.2784 20.023L9.99153 19.4322L9.97768 19.4653C9.82417 19.8034 9.50151 20.0484 9.11775 20.0921L9.05325 20.0976L8.994 20.0992C8.85429 20.0992 8.71614 20.072 8.58713 20.0196L8.52343 19.9912L7.38092 19.4381L7.36119 19.4792C7.20011 19.79 6.89247 20.0125 6.52979 20.0553L6.46117 20.0612L6.40192 20.0628C6.25209 20.0628 6.10417 20.0316 5.9675 19.9716L5.90014 19.9391L4.41241 19.1584C4.27279 19.0851 4.18099 18.9464 4.16666 18.7913L4.16469 18.7486V15.1456C4.16469 14.9844 4.24844 14.836 4.38376 14.7522L4.42191 14.731L10.0407 11.9455ZM11.8775 12.314C11.4423 12.3863 11.0142 12.5157 10.6045 12.7021L10.4518 12.7747L10.0717 12.9627V18.4505L11.6645 19.1818C11.6779 19.188 11.6922 19.1922 11.7068 19.1943L11.7288 19.1959C11.8046 19.1959 11.8675 19.1413 11.8806 19.0693L11.8831 19.0416V18.7486C11.8831 18.722 11.8852 18.6962 11.8894 18.6712L11.8845 18.6361L11.8823 18.5915L11.8775 12.314ZM12.8032 12.2458L12.8076 18.4536L14.3493 19.174C14.3629 19.1804 14.3774 19.1847 14.3922 19.1869L14.4146 19.1885C14.4903 19.1885 14.5533 19.134 14.5664 19.062L14.5689 19.0343L14.5688 12.5954C14.0485 12.3916 13.5026 12.2767 12.9531 12.2507L12.8032 12.2458ZM9.14621 13.4215L7.47902 14.248V18.4573L8.92678 19.1582C8.94075 19.165 8.95562 19.1696 8.97088 19.1719L8.994 19.1736C9.06973 19.1736 9.13271 19.1191 9.14577 19.0471L9.14826 19.0194V18.7486C9.14826 18.7232 9.15023 18.6985 9.15402 18.6745C9.1516 18.662 9.14978 18.6489 9.14852 18.6357L9.1464 18.5911L9.14621 13.4215ZM6.55349 14.7067L5.08992 15.4327V18.4684L6.33024 19.1196L6.3531 19.1294L6.37715 19.1353L6.40192 19.1373C6.47765 19.1373 6.54063 19.0827 6.55369 19.0108L6.55618 18.983L6.55575 18.8656L6.55363 18.821L6.55349 14.7067ZM15.4941 13.0448V16.9493L17.1144 16.1126V13.8889L15.4941 13.0448ZM14.1132 1.83229V8.15737L20.438 8.15706L14.1132 1.83229Z" fill="#7E8B9C"/>
</g>
<defs>
<clipPath id="clip0">
<rect width="22.2128" height="29" fill="white"/>
</clipPath>
</defs>
</svg>
