<svg width="180" height="31" viewBox="0 0 180 31" fill="none" xmlns="http://www.w3.org/2000/svg">
<path d="M125.792 2.54688C125.873 2.54688 125.94 2.60876 125.947 2.68789L125.948 2.70292V28.9004C125.948 28.9866 125.878 29.0565 125.792 29.0565C125.711 29.0565 125.644 28.9946 125.637 28.9155L125.636 28.9004V2.70292C125.636 2.61674 125.706 2.54688 125.792 2.54688Z" fill="#606470"/>
<path d="M139.737 24.0258C144.866 24.0258 147.788 20.8203 147.797 15.4584C147.797 10.1549 144.916 6.97436 140.037 6.97436H134.742V24.0258H139.737ZM139.646 22.627H136.299V8.37311H139.945C144.083 8.37311 146.281 11.0457 146.29 15.4584C146.29 19.9128 144.042 22.627 139.646 22.627ZM158.162 24.2589C161.792 24.2589 164.357 21.8277 164.915 18.6972H163.349C162.875 21.0368 160.835 22.7936 158.162 22.7936C154.932 22.7936 152.301 20.2375 152.301 15.5001C152.301 10.7793 154.932 8.20659 158.162 8.20659C160.835 8.20659 162.875 9.97168 163.349 12.3029H164.915C164.357 9.16407 161.792 6.74124 158.162 6.74124C153.858 6.74124 150.794 10.1632 150.794 15.5001C150.794 20.837 153.858 24.2589 158.162 24.2589ZM173.665 24.3172C177.362 24.3172 179.577 22.2274 179.577 19.4965C179.577 16.6657 177.112 15.5334 174.947 14.9256L173.149 14.4094C171.492 13.9431 169.752 13.1022 169.752 11.3038C169.752 9.47213 171.392 8.13166 173.773 8.13166C176.03 8.13166 177.645 9.33891 177.836 11.2372H179.343C179.227 8.64786 176.987 6.73291 173.815 6.73291C170.668 6.73291 168.245 8.62289 168.245 11.3704C168.245 13.5601 169.794 14.9339 172.466 15.7249L174.506 16.3243C176.621 16.9405 178.07 17.7314 178.07 19.4715C178.07 21.5197 176.213 22.8935 173.665 22.8935C171.367 22.8935 169.569 21.7861 169.402 19.7629H167.804C167.987 22.4605 170.185 24.3172 173.665 24.3172Z" fill="#606470"/>
<path d="M13.7246 30.8916C12.3155 30.8916 11.1688 29.7685 11.1308 28.3687L3.82967 24.1536C3.44998 24.3592 3.04039 24.4604 2.63477 24.4662L2.59465 24.4665C1.69895 24.4655 0.828152 24.0002 0.348083 23.1687C-0.356413 21.9485 0.0428295 20.3939 1.23604 19.661L1.23604 11.2306C0.0428295 10.4977 -0.356413 8.94309 0.348083 7.72287C0.820986 6.90377 1.67304 6.44006 2.55456 6.42542L2.59465 6.42506C3.01334 6.42458 3.43746 6.52554 3.82967 6.73794L11.1308 2.52278C11.1685 1.13723 12.2924 0.0228271 13.6816 0.000301361L13.7246 -4.76837e-05C15.1335 -4.76837e-05 16.2802 1.12298 16.3183 2.52276L23.6192 6.73805C23.999 6.53235 24.4087 6.43114 24.8143 6.42533L24.8545 6.42506C25.7502 6.42609 26.621 6.89136 27.101 7.72287C27.8055 8.94309 27.4063 10.4977 26.2131 11.2306L26.2131 19.661C27.4063 20.3939 27.8055 21.9485 27.101 23.1687C26.6281 23.9878 25.7761 24.4515 24.8946 24.4661L24.8545 24.4665C24.4358 24.467 24.0117 24.366 23.6195 24.1536L16.3183 28.3688C16.2806 29.7543 15.1568 30.8687 13.7675 30.8913L13.7246 30.8916ZM13.7246 3.8303L13.7582 3.82985C13.761 3.82977 13.7638 3.82969 13.7666 3.8296L13.7582 3.82985C13.7694 3.82955 13.7806 3.8291 13.7917 3.8285L13.7666 3.8296C13.7788 3.82919 13.7911 3.8286 13.8032 3.82783L13.7917 3.8285C13.8031 3.82789 13.8145 3.82712 13.8258 3.8262L13.8032 3.82783C13.8144 3.82713 13.8255 3.82629 13.8365 3.82529L13.8258 3.8262C13.8358 3.82539 13.8458 3.82445 13.8558 3.8234L13.8365 3.82529C13.8487 3.8242 13.8608 3.82293 13.8729 3.82148L13.8558 3.8234C13.8671 3.82221 13.8783 3.82086 13.8895 3.81937L13.8729 3.82148C13.8832 3.82026 13.8934 3.8189 13.9036 3.81743L13.8895 3.81937C13.9022 3.81768 13.9148 3.8158 13.9273 3.81373L13.9036 3.81743C13.9138 3.81593 13.9241 3.81431 13.9343 3.81257L13.9273 3.81373C13.938 3.81197 13.9486 3.81007 13.9592 3.80804L13.9343 3.81257C13.9456 3.81064 13.9568 3.80857 13.9679 3.80634L13.9592 3.80804C13.9728 3.80542 13.9864 3.80257 13.9999 3.79951L13.9679 3.80634C13.9936 3.80121 14.019 3.79528 14.0441 3.78859C14.0504 3.78692 14.0567 3.78518 14.063 3.7834L14.0441 3.78859C14.0544 3.78582 14.0647 3.78292 14.075 3.7799L14.063 3.7834C14.0722 3.78079 14.0813 3.77807 14.0905 3.77526L14.075 3.7799C14.5867 3.62884 14.9602 3.15538 14.9602 2.5947C14.9602 1.9123 14.407 1.35911 13.7246 1.35911C13.0422 1.35911 12.489 1.9123 12.489 2.5947C12.489 3.14927 12.8543 3.61852 13.3575 3.77485C13.3637 3.77684 13.3701 3.77875 13.3764 3.78061L13.3575 3.77485C13.3669 3.77778 13.3763 3.78059 13.3858 3.78329L13.3764 3.78061C13.3866 3.78357 13.3967 3.7864 13.4069 3.78911L13.3858 3.78329C13.3968 3.78641 13.4078 3.78937 13.4189 3.79219L13.4069 3.78911C13.4312 3.79553 13.4557 3.80123 13.4804 3.80618C13.4843 3.80697 13.4883 3.80774 13.4922 3.80849L13.4804 3.80618C13.4919 3.80848 13.5035 3.81062 13.5151 3.8126L13.4922 3.80849C13.5017 3.8103 13.5113 3.812 13.5209 3.81359L13.5151 3.8126C13.5254 3.81437 13.5358 3.816 13.5462 3.81751L13.5209 3.81359C13.5336 3.8157 13.5464 3.81762 13.5593 3.81934L13.5462 3.81751C13.5562 3.81895 13.5662 3.82027 13.5762 3.82147L13.5593 3.81934C13.5706 3.82085 13.5819 3.82221 13.5934 3.82342L13.5762 3.82147C13.5883 3.82291 13.6004 3.82419 13.6126 3.82528L13.5934 3.82342C13.6033 3.82446 13.6133 3.8254 13.6233 3.82621L13.6126 3.82528C13.6237 3.82628 13.6348 3.82713 13.6459 3.82783L13.6233 3.82621C13.6346 3.82713 13.646 3.82789 13.6574 3.8285L13.6459 3.82783C13.6581 3.8286 13.6703 3.82918 13.6825 3.82959L13.6574 3.8285C13.6796 3.82969 13.702 3.8303 13.7246 3.8303ZM17.7412 12.3103L22.3377 9.65651C22.3344 9.64359 22.3313 9.63065 22.3282 9.6177C22.3272 9.61374 22.3263 9.60968 22.3254 9.60563C22.3233 9.59671 22.3213 9.58787 22.3193 9.57903C22.3179 9.57258 22.3165 9.56605 22.3151 9.55953C22.3135 9.55192 22.3119 9.54433 22.3104 9.53674C22.3087 9.52869 22.3071 9.52068 22.3056 9.51266C22.3012 9.48965 22.297 9.46657 22.2932 9.44347C22.2922 9.43761 22.2913 9.43172 22.2904 9.42582C22.2814 9.36937 22.2744 9.31285 22.2693 9.25629C22.2687 9.24992 22.2682 9.24357 22.2676 9.23722C22.2656 9.2133 22.264 9.18936 22.2627 9.16542C22.2626 9.16337 22.2624 9.16133 22.2623 9.15928L22.2627 9.16542C22.262 9.15306 22.2614 9.14071 22.2609 9.12836C22.2606 9.12092 22.2603 9.11344 22.2601 9.10595C22.2598 9.0977 22.2596 9.08952 22.2594 9.08134C22.2593 9.07509 22.2591 9.06881 22.259 9.06253C22.2589 9.05631 22.2589 9.05011 22.2588 9.0439C22.2588 9.03822 22.2587 9.03253 22.2587 9.02684L22.2588 9.0439C22.2577 8.90567 22.2676 8.76795 22.2883 8.63209C22.2917 8.60951 22.2954 8.58696 22.2994 8.56447C22.3012 8.55465 22.303 8.54487 22.3049 8.5351C22.3088 8.51436 22.313 8.49365 22.3175 8.47299C22.3191 8.46555 22.3208 8.4581 22.3224 8.45066C22.3236 8.44529 22.3249 8.43996 22.3261 8.43463C22.3273 8.42963 22.3284 8.42461 22.3296 8.41959C22.3319 8.41001 22.3342 8.40052 22.3366 8.39103C22.3437 8.36273 22.3513 8.3345 22.3593 8.3064C22.365 8.28625 22.3711 8.26616 22.3773 8.24614C22.3794 8.23934 22.3816 8.23259 22.3837 8.22584C22.3855 8.22031 22.3873 8.21476 22.3891 8.20922C22.3913 8.20278 22.3934 8.19634 22.3956 8.18991C22.3985 8.18115 22.4015 8.17245 22.4046 8.16376C22.406 8.1595 22.4075 8.15523 22.4091 8.15097C22.4121 8.14247 22.4151 8.134 22.4182 8.12556C22.4189 8.12379 22.4195 8.12195 22.4202 8.12012C22.4243 8.10919 22.4283 8.09838 22.4325 8.08759C22.4422 8.06223 22.4524 8.03701 22.4629 8.01195C22.4713 7.99194 22.48 7.97203 22.4889 7.95222C22.492 7.94552 22.495 7.9388 22.4981 7.93209C22.5001 7.92778 22.5021 7.92352 22.5041 7.91926C22.5083 7.9102 22.5126 7.90115 22.517 7.89213C22.52 7.88583 22.523 7.87959 22.5261 7.87336C22.5289 7.86767 22.5317 7.86199 22.5345 7.85631C22.5383 7.84889 22.542 7.84151 22.5458 7.83414C22.5481 7.8296 22.5505 7.82498 22.5529 7.82037C22.5569 7.81273 22.5608 7.80519 22.5648 7.79766C22.5671 7.79342 22.5694 7.78918 22.5717 7.78495C22.5829 7.76406 22.5945 7.7433 22.6064 7.72269L15.9721 3.89228C15.9707 3.89455 15.9694 3.89682 15.9681 3.89909C15.9559 3.92012 15.9433 3.94093 15.9305 3.96155C15.9283 3.96506 15.9262 3.96856 15.924 3.97206C15.9191 3.97982 15.9142 3.98758 15.9092 3.99531C15.906 4.00034 15.9028 4.0053 15.8995 4.01024C15.8955 4.01641 15.8914 4.02263 15.8873 4.02883C15.8836 4.03447 15.8798 4.04004 15.8761 4.0456C15.8736 4.04924 15.8711 4.05289 15.8686 4.05653C15.8284 4.11537 15.7859 4.17245 15.7411 4.22766C15.7281 4.24377 15.7148 4.25974 15.7014 4.27556C15.6889 4.29024 15.6762 4.30479 15.6634 4.3192C15.6573 4.32605 15.6512 4.33284 15.645 4.33961C15.6416 4.34337 15.6381 4.34715 15.6347 4.35092C15.6311 4.3548 15.6275 4.35864 15.624 4.36248C15.6091 4.3784 15.5941 4.39414 15.5789 4.40969C15.5311 4.45853 15.4813 4.50552 15.4298 4.55051L15.4252 4.55452C15.4086 4.56894 15.3918 4.58315 15.3748 4.59715C15.3721 4.59942 15.3693 4.60165 15.3666 4.60387C15.3603 4.60904 15.3539 4.61423 15.3475 4.61939C15.3417 4.62404 15.3359 4.62864 15.3301 4.63323C15.3269 4.63574 15.3237 4.63825 15.3205 4.64074C15.2996 4.65711 15.2784 4.67314 15.2569 4.68886C15.2556 4.68983 15.2544 4.69074 15.2531 4.69164C15.2466 4.69637 15.2401 4.70111 15.2335 4.70581C15.2179 4.71702 15.2021 4.72804 15.1862 4.73888L15.1796 4.7434C15.1351 4.77361 15.0896 4.80247 15.0431 4.82993C15.0386 4.83261 15.0341 4.83527 15.0295 4.83792C15.0106 4.84892 14.9916 4.8597 14.9724 4.87025C14.9647 4.8745 14.957 4.87869 14.9492 4.88284C14.9446 4.88529 14.9401 4.88773 14.9355 4.89016C14.9302 4.89294 14.9249 4.89573 14.9196 4.89849C14.9105 4.9032 14.9014 4.90786 14.8923 4.91246C14.8886 4.91432 14.8849 4.91618 14.8812 4.91803C14.8602 4.9285 14.8391 4.93866 14.8179 4.94855C14.813 4.95082 14.8081 4.95309 14.8032 4.95535C14.7814 4.96532 14.7594 4.97498 14.7374 4.98434C14.7156 4.99358 14.6937 5.00252 14.6717 5.01118C14.6514 5.01911 14.6311 5.0268 14.6106 5.03424C14.6057 5.03603 14.6008 5.03778 14.5959 5.03953C14.5864 5.04291 14.5768 5.04626 14.5672 5.04955C14.5649 5.05037 14.5625 5.05116 14.5602 5.05195C14.5497 5.05552 14.5391 5.05904 14.5285 5.06249C14.5245 5.06379 14.5206 5.06508 14.5166 5.06636C14.5059 5.06977 14.4952 5.07312 14.4844 5.07641C14.482 5.07716 14.4796 5.0779 14.4771 5.07863C14.4683 5.08132 14.4593 5.08397 14.4504 5.08657C14.4427 5.0888 14.4351 5.09099 14.4274 5.09314C14.4254 5.09369 14.4235 5.09422 14.4216 5.09476L14.4217 10.0918C15.8413 10.2673 17.0604 11.1132 17.7412 12.3103ZM9.94428 12.4156C10.5794 11.2228 11.728 10.3779 13.0625 10.1318L13.0625 5.10424C13.0476 5.1003 13.0327 5.09624 13.0179 5.09205C13.0113 5.09019 13.0047 5.08832 12.9982 5.08642C12.9481 5.07185 12.8986 5.05579 12.8498 5.03831C12.8455 5.03676 12.8411 5.03519 12.8368 5.03362C12.8272 5.03013 12.8177 5.02661 12.8082 5.02302C12.8049 5.02176 12.8015 5.02048 12.7982 5.0192C12.7891 5.01574 12.7801 5.01224 12.7711 5.00869C12.7666 5.00687 12.762 5.00504 12.7574 5.00319C12.7471 4.99906 12.7368 4.99486 12.7266 4.99061C12.7238 4.98942 12.7209 4.98821 12.718 4.987C12.6953 4.97742 12.6727 4.96753 12.6503 4.95732C12.6442 4.95454 12.6381 4.95174 12.6321 4.94893C12.6141 4.94057 12.5961 4.93199 12.5784 4.92321C12.5673 4.91775 12.5563 4.91223 12.5453 4.90663C12.5388 4.90331 12.5323 4.89993 12.5258 4.89652C12.523 4.89508 12.5203 4.89367 12.5176 4.89225C12.5073 4.88683 12.497 4.88132 12.4868 4.87574C12.4831 4.87375 12.4794 4.87173 12.4757 4.86971C12.4694 4.86625 12.4632 4.86279 12.457 4.85929C12.4372 4.84819 12.4176 4.83684 12.3981 4.82524C12.3939 4.82272 12.3897 4.8202 12.3855 4.81767C12.3774 4.8128 12.3693 4.80786 12.3613 4.80288C12.3563 4.79978 12.3513 4.79666 12.3463 4.79352C12.3413 4.7904 12.3363 4.78724 12.3313 4.78407C12.3256 4.7804 12.3199 4.77674 12.3142 4.77305C12.296 4.76122 12.2778 4.74913 12.2599 4.73682C12.2536 4.73251 12.2473 4.72816 12.241 4.72379C12.209 4.70139 12.1774 4.6783 12.1464 4.65452C12.1404 4.64993 12.1344 4.6453 12.1285 4.64064L12.1237 4.63686C12.0985 4.61711 12.0737 4.5969 12.0493 4.57625C12.0433 4.57115 12.0373 4.56603 12.0313 4.56089C12.0251 4.55553 12.0189 4.55016 12.0128 4.54475C12.0086 4.54105 12.0043 4.53731 12.0001 4.53356C11.9967 4.53049 11.9933 4.52746 11.9899 4.52441C11.941 4.48041 11.8937 4.43456 11.8483 4.38699C11.8441 4.38264 11.84 4.37825 11.8358 4.37385C11.8171 4.35398 11.7987 4.33383 11.7806 4.31339L11.7795 4.3121C11.7477 4.27608 11.7168 4.23918 11.687 4.20142C11.6825 4.19577 11.6781 4.19007 11.6736 4.18436C11.6695 4.17905 11.6655 4.17375 11.6614 4.16843C11.6571 4.16284 11.6528 4.15723 11.6486 4.15159C11.6455 4.1474 11.6424 4.14324 11.6393 4.13906C11.6337 4.13163 11.6282 4.1241 11.6227 4.11655C11.6194 4.11193 11.6161 4.10732 11.6128 4.1027C11.6085 4.0967 11.6042 4.0907 11.6 4.08468C11.5964 4.0795 11.5927 4.07426 11.5891 4.06901C11.5843 4.06211 11.5796 4.05522 11.5749 4.04831C11.5716 4.04348 11.5684 4.03862 11.5651 4.03375C11.5373 3.99214 11.5107 3.94969 11.4853 3.90644L11.4771 3.89228L4.84269 7.72263C4.8567 7.74698 4.87005 7.77103 4.883 7.79527C4.88745 7.80362 4.89186 7.81197 4.89621 7.82034C4.89949 7.82663 4.90272 7.8329 4.90592 7.83919C4.90781 7.84289 4.90969 7.8466 4.91156 7.85031C4.92306 7.87313 4.93423 7.89613 4.94505 7.91928C4.94705 7.92356 4.94903 7.92782 4.951 7.93209C4.9548 7.94035 4.95857 7.94864 4.96229 7.95694C4.96404 7.96084 4.96577 7.96473 4.96749 7.96863C4.97131 7.97725 4.97508 7.98591 4.9788 7.99458C4.99439 8.03088 5.00912 8.06748 5.02302 8.10437C5.03633 8.13971 5.04887 8.17533 5.06062 8.2112C5.06207 8.21561 5.06352 8.22009 5.06496 8.22456C5.08246 8.27894 5.09816 8.33384 5.11205 8.38921C5.11363 8.39551 5.11519 8.40182 5.11672 8.40814C5.12195 8.42966 5.12691 8.45125 5.13159 8.4729C5.13272 8.47817 5.13384 8.4834 5.13494 8.48864C5.13705 8.49871 5.13911 8.50883 5.14111 8.51897C5.14203 8.52365 5.14294 8.52832 5.14384 8.53301C5.151 8.57038 5.15734 8.60792 5.16287 8.64559C5.16483 8.65898 5.16669 8.6724 5.16845 8.68583C5.17079 8.70375 5.17294 8.72169 5.17491 8.73966C5.17904 8.77732 5.18235 8.81514 5.18483 8.85303C5.18532 8.86053 5.18578 8.86802 5.18621 8.87552C5.18653 8.88129 5.18685 8.88708 5.18714 8.89288C5.18836 8.91729 5.18924 8.94172 5.18977 8.96618C5.19033 8.9921 5.19051 9.01803 5.1903 9.04397C5.19024 9.05014 5.19017 9.05638 5.19007 9.06262C5.19 9.06728 5.18992 9.07185 5.18983 9.07643C5.18931 9.10124 5.18844 9.12614 5.1872 9.15105C5.18676 9.15989 5.18628 9.16874 5.18575 9.17759C5.18538 9.18363 5.185 9.18967 5.1846 9.19571C5.18427 9.20061 5.18393 9.20551 5.18357 9.2104C5.18149 9.23898 5.17893 9.26758 5.17589 9.29616C5.17584 9.29661 5.1758 9.29706 5.17575 9.29751L5.17589 9.29616C5.16963 9.35503 5.16132 9.41385 5.15095 9.47251C5.14994 9.47821 5.14891 9.4839 5.14787 9.4896C5.14654 9.49682 5.14518 9.50404 5.14379 9.51125C5.13964 9.53278 5.13521 9.55428 5.1305 9.57575C5.12658 9.59361 5.12246 9.6115 5.11814 9.62936L9.94428 12.4156ZM25.4717 10.0903C26.0627 9.7491 26.2652 8.99342 25.924 8.40244C25.5828 7.81147 24.8271 7.60899 24.2361 7.95019C23.7703 8.21914 23.5458 8.74562 23.6388 9.24597C23.6396 9.25085 23.6406 9.25573 23.6415 9.26062L23.6388 9.24597C23.6405 9.25523 23.6423 9.26449 23.6443 9.27373L23.6415 9.26062C23.6439 9.27249 23.6464 9.28434 23.6491 9.29617L23.6443 9.27373C23.6469 9.28621 23.6497 9.29866 23.6527 9.31109L23.6491 9.29617C23.6514 9.30594 23.6538 9.31569 23.6563 9.32542L23.6527 9.31109C23.6553 9.3217 23.658 9.33228 23.6609 9.34285L23.6563 9.32542C23.6592 9.33697 23.6623 9.3485 23.6656 9.35999L23.6609 9.34285C23.6635 9.3527 23.6663 9.36252 23.6693 9.37233L23.6656 9.35999C23.6761 9.39634 23.6882 9.43236 23.7021 9.46794C23.704 9.47294 23.706 9.47795 23.7081 9.48295L23.7021 9.46794C23.7065 9.47919 23.7111 9.4904 23.7158 9.50157L23.7081 9.48295C23.7122 9.49319 23.7165 9.50339 23.721 9.51356L23.7158 9.50157C23.7198 9.51096 23.7239 9.52031 23.7281 9.52963L23.721 9.51356C23.7262 9.52564 23.7317 9.53767 23.7374 9.54965L23.7281 9.52963C23.7327 9.53963 23.7373 9.54959 23.7422 9.55951L23.7374 9.54965C23.7421 9.5595 23.7469 9.56932 23.7519 9.5791L23.7422 9.55951C23.748 9.57159 23.7541 9.5836 23.7604 9.59554L23.7519 9.5791C23.759 9.59316 23.7665 9.60713 23.7742 9.62103L23.7839 9.63804C23.8008 9.66735 23.8188 9.69576 23.8377 9.72324C23.8404 9.72717 23.8432 9.73106 23.8459 9.73493L23.8377 9.72324C23.851 9.74243 23.8647 9.76117 23.8789 9.77944C23.8814 9.78267 23.8839 9.78583 23.8864 9.78897L23.8789 9.77944C23.8847 9.78689 23.8905 9.79425 23.8965 9.80155L23.8864 9.78897C23.8944 9.79906 23.9025 9.809 23.9108 9.81878L23.8965 9.80155C23.9032 9.80979 23.91 9.81793 23.9169 9.82598L23.9108 9.81878C23.917 9.82614 23.9232 9.8334 23.9296 9.84058L23.9169 9.82598C23.9335 9.84529 23.9506 9.86402 23.9682 9.88215C23.9809 9.89523 23.9938 9.90799 24.0071 9.92042C24.0193 9.93197 24.0317 9.94325 24.0444 9.95425C24.0513 9.96011 24.0581 9.96592 24.065 9.97164L24.0444 9.95425C24.0525 9.96131 24.0608 9.96826 24.0691 9.97509L24.065 9.97164C24.4515 10.292 25.0115 10.356 25.4717 10.0903ZM3.45171 9.91124L3.46167 9.90157C3.47428 9.88915 3.48664 9.87644 3.49875 9.86343C3.50044 9.86161 3.50207 9.85986 3.5037 9.85809L3.49875 9.86343C3.50635 9.85527 3.51384 9.847 3.52123 9.83862L3.5037 9.85809C3.51177 9.84932 3.51972 9.84042 3.52757 9.83139L3.52123 9.83862C3.52891 9.82991 3.53648 9.82107 3.54393 9.81212L3.52757 9.83139C3.53427 9.82366 3.5409 9.81584 3.54744 9.80791L3.54393 9.81212C3.55024 9.80455 3.55646 9.79689 3.5626 9.78915L3.54744 9.80791C3.55606 9.79746 3.56453 9.78684 3.57285 9.77605L3.5626 9.78915C3.56957 9.78035 3.57644 9.77144 3.5832 9.76243L3.57285 9.77605C3.5791 9.76795 3.58527 9.75975 3.59134 9.75145L3.5832 9.76243C3.58975 9.75368 3.5962 9.74483 3.60254 9.73588L3.59134 9.75145C3.59823 9.74204 3.60501 9.7325 3.61167 9.72285L3.60254 9.73588C3.62479 9.70449 3.64573 9.67186 3.66526 9.63804C3.66852 9.63239 3.67173 9.62672 3.6749 9.62103L3.66526 9.63804C3.67978 9.61289 3.69332 9.58744 3.70588 9.56174C3.70895 9.55544 3.71197 9.54913 3.71493 9.5428L3.70588 9.56174C3.70945 9.55444 3.71293 9.54712 3.71634 9.53978L3.71493 9.5428C3.71978 9.53244 3.72448 9.52202 3.72902 9.51156C3.73037 9.5085 3.73169 9.50541 3.73301 9.50233L3.72902 9.51156C3.74892 9.4658 3.76589 9.41921 3.77995 9.37205C3.78082 9.36912 3.78167 9.36621 3.78251 9.36331L3.77995 9.37205C3.78313 9.36139 3.78616 9.35069 3.78904 9.33998L3.78251 9.36331C3.78582 9.3519 3.78896 9.34047 3.79192 9.32901L3.78904 9.33998C3.79178 9.32979 3.79439 9.31958 3.79686 9.30935L3.79192 9.32901C3.79786 9.30602 3.80312 9.28293 3.8077 9.25979C3.80839 9.25659 3.80901 9.2534 3.80961 9.25021L3.8077 9.25979C3.9074 8.75534 3.68313 8.22161 3.213 7.95019C2.62202 7.60899 1.86634 7.81147 1.52514 8.40244C1.18394 8.99342 1.38643 9.7491 1.9774 10.0903C2.46519 10.3719 3.06519 10.2831 3.45171 9.91124ZM4.40434 20.0103L7.34781 18.3109C6.84732 17.6947 6.54738 16.909 6.54738 16.0534C6.54738 14.7656 7.22668 13.6365 8.24648 13.0049L4.46409 10.8211C4.44876 10.837 4.43325 10.8528 4.41757 10.8682C4.39044 10.895 4.36281 10.9211 4.33468 10.9465C4.22055 11.0496 4.09833 11.1415 3.96976 11.2216C3.91969 11.2528 3.86866 11.2822 3.81678 11.3098L3.81518 11.3107C3.79161 11.3232 3.76787 11.3354 3.74396 11.3471C3.70956 11.3641 3.67485 11.3802 3.63983 11.3956C3.62806 11.4008 3.61626 11.4058 3.60443 11.4108C3.57763 11.4221 3.55062 11.433 3.52345 11.4434C3.506 11.45 3.48854 11.4565 3.47102 11.4628C3.4382 11.4745 3.40514 11.4856 3.37188 11.496C3.35158 11.5024 3.33122 11.5085 3.31079 11.5144C3.27486 11.5247 3.2387 11.5342 3.20235 11.543C3.18074 11.5482 3.15903 11.5531 3.13727 11.5578C3.11644 11.5622 3.09553 11.5664 3.07457 11.5704C3.07032 11.5712 3.06613 11.572 3.06193 11.5727C3.04613 11.5756 3.03024 11.5784 3.01433 11.581C2.99328 11.5845 2.97223 11.5876 2.95115 11.5906C2.94888 11.5909 2.94666 11.5912 2.94444 11.5915C2.94006 11.5921 2.93563 11.5927 2.93119 11.5933C2.90654 11.5965 2.88187 11.5994 2.85714 11.6019C2.83327 11.6044 2.80941 11.6065 2.78552 11.6083C2.77996 11.6087 2.7744 11.6091 2.76884 11.6094C2.74458 11.6111 2.72028 11.6124 2.69595 11.6134C2.69101 11.6136 2.68608 11.6137 2.68115 11.6139C2.66605 11.6144 2.65095 11.6148 2.63584 11.6151L2.59575 11.6154L2.5952 11.6154L2.5952 19.2761H2.59575C2.67599 19.2762 2.75603 19.28 2.8356 19.2875C2.84982 19.2889 2.864 19.2903 2.87817 19.2919C2.91061 19.2955 2.943 19.2996 2.97528 19.3045C2.99783 19.3078 3.0203 19.3114 3.04272 19.3154C3.07271 19.3207 3.10258 19.3264 3.13235 19.3327C3.15624 19.3378 3.18001 19.3432 3.2037 19.3489L3.24656 19.3597C3.32675 19.3805 3.40595 19.4051 3.48386 19.4334C3.50191 19.44 3.51983 19.4467 3.53767 19.4537C3.57487 19.4682 3.61144 19.4834 3.64767 19.4994C3.65385 19.5021 3.66009 19.5049 3.66631 19.5077C3.68124 19.5145 3.69604 19.5214 3.71077 19.5284C3.73874 19.5416 3.76648 19.5554 3.79399 19.5697C3.87078 19.6096 3.94572 19.6534 4.01851 19.7011C4.03689 19.7131 4.05514 19.7254 4.07324 19.7379C4.08063 19.743 4.08801 19.7482 4.09537 19.7534C4.11823 19.7696 4.14083 19.7861 4.16319 19.8031C4.24725 19.8667 4.32782 19.9359 4.40434 20.0103ZM23.0651 19.991L23.0789 19.9777C23.1238 19.9356 23.17 19.8953 23.2175 19.8568C23.3013 19.7887 23.3889 19.7263 23.4797 19.6698L23.481 19.6689C23.5008 19.6566 23.5208 19.6446 23.5408 19.6328C23.5456 19.6301 23.5503 19.6273 23.5551 19.6245L23.5408 19.6328C23.5796 19.6101 23.619 19.5884 23.6588 19.5678C23.7156 19.5384 23.7734 19.5112 23.832 19.4861C23.92 19.4485 24.0099 19.4158 24.1013 19.3881C24.1076 19.3862 24.1139 19.3843 24.1202 19.3825C24.1406 19.3764 24.1611 19.3707 24.1817 19.3651C24.2154 19.3561 24.2492 19.3478 24.2831 19.3401C24.2911 19.3383 24.2991 19.3365 24.3071 19.3348C24.3299 19.3299 24.3528 19.3253 24.3757 19.321C24.3778 19.3206 24.3798 19.3202 24.3818 19.3198C24.3933 19.3177 24.4047 19.3156 24.4163 19.3137L24.3818 19.3198C24.3994 19.3166 24.417 19.3135 24.4346 19.3106C24.4579 19.3068 24.4812 19.3033 24.5046 19.3001C24.5295 19.2967 24.5544 19.2936 24.5794 19.291C24.5837 19.2905 24.588 19.29 24.5923 19.2896C24.6157 19.2872 24.639 19.2851 24.6625 19.2834C24.6684 19.2829 24.6743 19.2825 24.6802 19.2821C24.7035 19.2805 24.7267 19.2793 24.75 19.2783C24.756 19.2781 24.7621 19.2778 24.7681 19.2776C24.7708 19.2775 24.7735 19.2775 24.7762 19.2774C24.802 19.2766 24.8279 19.2762 24.8539 19.2761L24.8483 19.2763L24.8534 19.2761L24.8539 19.2761L24.8539 11.6154H24.8534C24.8056 11.6154 24.7579 11.614 24.7103 11.6113C24.6905 11.6102 24.6707 11.6088 24.6509 11.6073C24.6242 11.6052 24.5976 11.6026 24.571 11.5997C24.5432 11.5966 24.5155 11.5931 24.4879 11.5892C24.4692 11.5865 24.4505 11.5836 24.4318 11.5805C24.4093 11.5768 24.3869 11.5728 24.3645 11.5685C24.3431 11.5643 24.3217 11.5599 24.3003 11.5553C24.2392 11.5419 24.1786 11.5263 24.1186 11.5086C24.0488 11.488 23.9803 11.4646 23.9128 11.4384C23.8885 11.429 23.8643 11.4192 23.8403 11.409C23.8327 11.4058 23.825 11.4025 23.8174 11.3991C23.7853 11.3852 23.7536 11.3706 23.7221 11.3554C23.7057 11.3475 23.6894 11.3394 23.6731 11.3311C23.6226 11.3053 23.5728 11.2778 23.5238 11.2487C23.509 11.2398 23.4942 11.2308 23.4795 11.2217L23.4424 11.1981C23.43 11.1901 23.4177 11.182 23.4055 11.1738C23.2622 11.0775 23.1277 10.9664 23.0044 10.841L18.3218 13.5444C19.8127 13.7316 20.9696 14.9922 20.9945 16.5279L20.9949 16.5785C20.9949 17.2762 20.7613 17.9193 20.368 18.4339L23.0651 19.991ZM13.5647 18.2774H17.9369C18.8752 18.2774 19.6358 17.5168 19.6358 16.5785C19.6358 15.6402 18.8752 14.8795 17.9368 14.8795L17.0008 14.8795L16.9505 14.2544C16.8221 12.6578 15.484 11.4172 13.8716 11.4172C12.5836 11.4172 11.4446 12.2128 10.9886 13.3944L10.8207 13.8293L10.1306 13.8293C8.90228 13.8293 7.90654 14.825 7.90654 16.0534C7.90654 17.2817 8.90228 18.2774 10.1306 18.2774H13.4525C13.4676 18.2774 13.4823 18.2773 13.4968 18.277L13.5114 18.2767L13.5453 18.2773L13.5647 18.2774ZM11.4771 26.9992L11.4845 26.9865C11.4953 26.9681 11.5062 26.9499 11.5175 26.9318C11.5209 26.9262 11.5244 26.9207 11.5279 26.9152C11.531 26.9102 11.5341 26.9053 11.5373 26.9003C11.5412 26.8943 11.545 26.8883 11.5489 26.8823C11.5823 26.8311 11.6175 26.7811 11.6543 26.7324C11.6724 26.7085 11.6908 26.685 11.7097 26.6618C11.7402 26.6243 11.7717 26.5877 11.8041 26.5519C11.8071 26.5487 11.8101 26.5454 11.8131 26.5421C11.8191 26.5356 11.8251 26.5291 11.8312 26.5226C11.8344 26.5192 11.8376 26.5158 11.8408 26.5124C11.8471 26.5058 11.8533 26.4993 11.8597 26.4927C11.9152 26.4353 11.9734 26.3804 12.034 26.3283C12.0613 26.3049 12.089 26.282 12.1172 26.2597C12.121 26.2568 12.1248 26.2538 12.1285 26.2509C12.1353 26.2456 12.142 26.2404 12.1487 26.2352C12.1548 26.2306 12.1609 26.226 12.1669 26.2214C12.1709 26.2184 12.175 26.2154 12.179 26.2124C12.1969 26.1992 12.2149 26.1862 12.233 26.1734C12.238 26.1699 12.2429 26.1664 12.2479 26.163C12.2653 26.1509 12.2829 26.139 12.3007 26.1273C12.3084 26.1223 12.3161 26.1172 12.3239 26.1122C12.3459 26.0981 12.3681 26.0843 12.3905 26.0709C12.3955 26.0679 12.4005 26.0649 12.4055 26.0619C12.424 26.051 12.4426 26.0403 12.4613 26.0298C12.4664 26.027 12.4716 26.0241 12.4767 26.0213C12.4831 26.0178 12.4895 26.0143 12.4959 26.0109C12.516 26 12.5363 25.9894 12.5568 25.9791C12.56 25.9775 12.5633 25.9758 12.5665 25.9742C12.5743 25.9703 12.5822 25.9665 12.59 25.9626C12.5957 25.9599 12.6014 25.9571 12.6071 25.9544C12.6261 25.9453 12.6453 25.9364 12.6645 25.9278C12.6836 25.9193 12.7028 25.9109 12.7221 25.9028C12.7444 25.8935 12.7668 25.8845 12.7894 25.8757C12.8147 25.8659 12.8402 25.8565 12.8659 25.8475C12.8694 25.8463 12.873 25.8451 12.8765 25.8439C12.8982 25.8363 12.9202 25.8291 12.9422 25.8221C12.9473 25.8205 12.9524 25.8189 12.9574 25.8174C12.9645 25.8152 12.9717 25.813 12.9789 25.8109C12.9854 25.8089 12.9918 25.807 12.9983 25.8051C13.006 25.8029 13.0138 25.8006 13.0216 25.7984C13.0252 25.7974 13.0288 25.7964 13.0324 25.7954C13.0391 25.7936 13.0459 25.7917 13.0527 25.7899L13.0626 25.7874L13.0626 19.6366L10.1306 19.6366C9.53247 19.6366 8.96857 19.49 8.47285 19.2309L5.09683 21.18C5.10361 21.2045 5.11001 21.229 5.11604 21.2536C5.12136 21.2753 5.1264 21.297 5.13115 21.3188C5.13559 21.3391 5.13977 21.3595 5.1437 21.3799C5.1452 21.3876 5.14665 21.3953 5.14807 21.4031C5.14949 21.4108 5.15087 21.4186 5.15222 21.4263C5.16194 21.4822 5.16978 21.5381 5.17576 21.5942C5.17685 21.6044 5.17788 21.6146 5.17885 21.6248C5.18063 21.6436 5.1822 21.6623 5.18356 21.681C5.18402 21.6874 5.18447 21.6938 5.18488 21.7002C5.18545 21.7088 5.18597 21.7175 5.18645 21.7261C5.18678 21.7321 5.18708 21.738 5.18737 21.7439C5.18855 21.7684 5.18938 21.7929 5.18987 21.8173C5.19001 21.8244 5.19013 21.8316 5.19021 21.8387C5.19027 21.8442 5.19032 21.8497 5.19035 21.8551L5.19021 21.8387C5.1906 21.872 5.19034 21.9053 5.18945 21.9385C5.18889 21.9594 5.18807 21.9803 5.18701 22.0012C5.18669 22.0074 5.18635 22.0136 5.18599 22.0198C5.18563 22.026 5.18524 22.0323 5.18483 22.0385C5.1815 22.0895 5.17666 22.1403 5.17035 22.1908C5.16853 22.2054 5.16658 22.22 5.16451 22.2345C5.16333 22.2429 5.16211 22.2512 5.16085 22.2595L5.16451 22.2345C5.15853 22.2767 5.15151 22.3187 5.14348 22.3604C5.14256 22.3652 5.14163 22.3699 5.14069 22.3747C5.13301 22.4135 5.12444 22.4521 5.11499 22.4905C5.10838 22.5174 5.10134 22.5442 5.09387 22.5709C5.09245 22.576 5.09101 22.581 5.08957 22.5861C5.08854 22.5897 5.08748 22.5933 5.08642 22.597L5.08957 22.5861C5.08137 22.6147 5.07269 22.6432 5.06352 22.6715C5.06224 22.6754 5.06095 22.6794 5.05965 22.6833C5.05681 22.6919 5.05393 22.7005 5.05101 22.7091C5.04977 22.7128 5.04852 22.7164 5.04727 22.72C5.03911 22.7436 5.03061 22.7671 5.02178 22.7905C5.00611 22.8319 4.98938 22.873 4.9716 22.9136C4.95868 22.9431 4.9452 22.9724 4.93117 23.0015C4.92779 23.0085 4.92433 23.0156 4.92085 23.0226C4.91806 23.0283 4.91528 23.0339 4.91247 23.0394C4.9089 23.0465 4.90526 23.0537 4.90158 23.0608C4.89929 23.0653 4.89699 23.0697 4.89467 23.0742C4.89069 23.0818 4.88668 23.0894 4.88263 23.097C4.86982 23.1209 4.85659 23.1448 4.84297 23.1684L4.84269 23.1689L11.4771 26.9992ZM15.972 26.9992L22.6064 23.1689C22.5956 23.1501 22.585 23.1312 22.5747 23.1122C22.5719 23.1071 22.5692 23.102 22.5665 23.0969C22.5624 23.0894 22.5584 23.0818 22.5545 23.0742C22.5521 23.0697 22.5498 23.0653 22.5475 23.0609C22.5434 23.0528 22.5393 23.0447 22.5352 23.0366C22.5332 23.0325 22.5311 23.0284 22.5291 23.0242C22.525 23.0161 22.5211 23.008 22.5172 22.9999C22.5142 22.9937 22.5112 22.9874 22.5082 22.9811C22.507 22.9786 22.5058 22.976 22.5046 22.9735L22.5082 22.9811C22.5025 22.969 22.4969 22.957 22.4914 22.9448C22.4824 22.9248 22.4735 22.9046 22.4649 22.8843L22.4639 22.882C22.4414 22.8287 22.4207 22.7747 22.4018 22.72C22.4006 22.7164 22.3993 22.7128 22.3981 22.7091C22.3952 22.7005 22.3923 22.6919 22.3895 22.6833C22.3882 22.6794 22.3869 22.6754 22.3856 22.6715C22.383 22.6634 22.3804 22.6553 22.3779 22.6472C22.3715 22.6269 22.3654 22.6065 22.3595 22.586C22.3581 22.581 22.3567 22.576 22.3553 22.5709C22.3478 22.5442 22.3407 22.5174 22.3341 22.4905C22.3281 22.4661 22.3225 22.4416 22.3172 22.417C22.3159 22.4113 22.3147 22.4055 22.3135 22.3997C22.3088 22.3769 22.3043 22.3541 22.3002 22.3313C22.2969 22.313 22.2938 22.2947 22.2909 22.2764L22.2899 22.27C22.2695 22.1394 22.259 22.0071 22.2587 21.8742C22.2587 21.8679 22.2587 21.8615 22.2588 21.8552C22.2588 21.8497 22.2588 21.8442 22.2589 21.8387L22.2588 21.8552C22.2588 21.8426 22.259 21.8299 22.2592 21.8173C22.2594 21.8072 22.2597 21.797 22.26 21.7869C22.2602 21.7805 22.2605 21.7741 22.2607 21.7676C22.261 21.7598 22.2614 21.7518 22.2617 21.7439C22.262 21.7388 22.2623 21.7337 22.2625 21.7286C22.2638 21.7062 22.2653 21.6839 22.267 21.6616C22.2677 21.6534 22.2684 21.6452 22.2691 21.637C22.2743 21.5799 22.2813 21.5228 22.2903 21.4658C22.291 21.4615 22.2917 21.4573 22.2924 21.4531C22.2966 21.4274 22.3011 21.4018 22.3061 21.3762C22.307 21.3716 22.3079 21.3671 22.3088 21.3625C22.3108 21.3526 22.3129 21.3427 22.315 21.3327C22.3159 21.3281 22.3169 21.3235 22.318 21.3188C22.3196 21.3115 22.3212 21.3042 22.3228 21.2969C22.3247 21.2888 22.3266 21.2805 22.3285 21.2723C22.3343 21.2481 22.3404 21.2239 22.3469 21.1998C22.3496 21.1896 22.3524 21.1795 22.3553 21.1693C22.3568 21.164 22.3583 21.1586 22.3598 21.1533L19.2341 19.3486C18.8403 19.5333 18.4006 19.6366 17.9369 19.6366L14.4217 19.6366L14.4217 25.7968C14.4345 25.8004 14.4473 25.8041 14.46 25.8078C14.4638 25.8089 14.4677 25.8101 14.4715 25.8112C14.4806 25.814 14.4897 25.8167 14.4988 25.8196C14.5034 25.821 14.508 25.8225 14.5126 25.8239C14.5209 25.8266 14.5291 25.8292 14.5374 25.832C14.5421 25.8335 14.5469 25.8351 14.5517 25.8367C14.5742 25.8443 14.5965 25.8521 14.6187 25.8603C14.6225 25.8617 14.6263 25.8631 14.6301 25.8645C14.6376 25.8673 14.6449 25.8701 14.6523 25.8729C14.6721 25.8805 14.6918 25.8883 14.7113 25.8963C14.7407 25.9084 14.7698 25.921 14.7987 25.9342C14.8144 25.9413 14.83 25.9486 14.8455 25.956C14.8507 25.9586 14.856 25.9611 14.8613 25.9637C14.8936 25.9795 14.9255 25.9959 14.957 26.0129C14.9651 26.0173 14.9732 26.0217 14.9813 26.0262C14.9849 26.0282 14.9886 26.0303 14.9922 26.0323C14.999 26.0361 15.0057 26.0399 15.0124 26.0438C15.0194 26.0477 15.0263 26.0517 15.0332 26.0558C15.038 26.0586 15.0428 26.0615 15.0477 26.0643C15.0559 26.0692 15.0641 26.0742 15.0723 26.0791C15.0748 26.0807 15.0773 26.0822 15.0798 26.0837C15.0894 26.0896 15.0991 26.0956 15.1087 26.1017C15.1121 26.1039 15.1154 26.106 15.1188 26.1081C15.1249 26.112 15.131 26.116 15.1371 26.1199C15.1432 26.1239 15.1493 26.1279 15.1553 26.1319C15.1609 26.1356 15.1665 26.1393 15.172 26.143C15.1777 26.1468 15.1833 26.1507 15.1889 26.1545C15.1967 26.1598 15.2044 26.1652 15.2121 26.1706C15.2337 26.1857 15.2551 26.2012 15.2762 26.2169C15.292 26.2287 15.3076 26.2407 15.3231 26.2529C15.3284 26.257 15.3336 26.2611 15.3388 26.2652C15.3771 26.2957 15.4146 26.3273 15.4511 26.3599C15.4554 26.3637 15.4598 26.3676 15.4641 26.3716C15.4723 26.379 15.4804 26.3864 15.4884 26.3938C15.4912 26.3963 15.4939 26.3989 15.4966 26.4015C15.5002 26.4047 15.5037 26.408 15.5071 26.4113C15.5141 26.4179 15.5211 26.4246 15.528 26.4313C15.5316 26.4347 15.5351 26.4381 15.5386 26.4416C15.5428 26.4457 15.5471 26.45 15.5514 26.4542L15.5593 26.4621C15.5616 26.4644 15.5639 26.4666 15.5661 26.4689C15.5814 26.4843 15.5966 26.5 15.6115 26.5158L15.6148 26.5193C15.627 26.5323 15.6391 26.5453 15.651 26.5586C15.6609 26.5696 15.6708 26.5807 15.6805 26.5918C15.6948 26.6081 15.7088 26.6246 15.7226 26.6413C15.7263 26.6458 15.73 26.6503 15.7337 26.6548C15.7391 26.6614 15.7445 26.668 15.7499 26.6747C15.763 26.6911 15.7759 26.7076 15.7887 26.7243C15.7926 26.7295 15.7965 26.7347 15.8005 26.7399C15.8038 26.7444 15.8072 26.7489 15.8105 26.7534C15.8159 26.7607 15.8213 26.768 15.8266 26.7753C15.8294 26.7792 15.8323 26.7832 15.8351 26.7872C15.8406 26.7947 15.846 26.8024 15.8514 26.8101C15.854 26.8139 15.8566 26.8176 15.8592 26.8214C15.864 26.8282 15.8687 26.8351 15.8734 26.842C15.8769 26.8472 15.8803 26.8523 15.8838 26.8574C15.9097 26.8963 15.9346 26.9358 15.9584 26.976L15.972 26.9992ZM3.213 22.9414C3.67973 22.6719 3.90415 22.1439 3.80981 21.6427C3.80918 21.6391 3.80848 21.6354 3.80776 21.6318L3.80981 21.6427C3.806 21.6225 3.80168 21.6023 3.79683 21.5822C3.77585 21.4953 3.7452 21.4099 3.70477 21.3276C3.70288 21.3237 3.70093 21.3198 3.69896 21.3159L3.70477 21.3276C3.70046 21.3188 3.69605 21.3101 3.69152 21.3014L3.69896 21.3159C3.69339 21.3048 3.68764 21.2939 3.68172 21.2829L3.66526 21.2535C3.64842 21.2244 3.63054 21.1961 3.61167 21.1687C3.60885 21.1646 3.60601 21.1606 3.60315 21.1565L3.61167 21.1687C3.60553 21.1598 3.59929 21.151 3.59295 21.1423L3.60315 21.1565C3.59653 21.1472 3.5898 21.1379 3.58295 21.1288L3.59295 21.1423C3.58562 21.1323 3.57815 21.1223 3.57054 21.1125L3.58295 21.1288C3.57704 21.1209 3.57104 21.1131 3.56497 21.1054L3.57054 21.1125C3.56342 21.1034 3.55618 21.0943 3.54882 21.0853L3.56497 21.1054C3.55813 21.0967 3.5512 21.0881 3.54416 21.0797L3.54882 21.0853C3.53587 21.0696 3.52257 21.0542 3.50893 21.0392C3.12646 20.6184 2.48998 20.5053 1.9774 20.8013C1.38643 21.1425 1.18394 21.8981 1.52514 22.4891C1.86634 23.0801 2.62202 23.2826 3.213 22.9414ZM25.924 22.4891C26.2652 21.8981 26.0627 21.1425 25.4717 20.8013C25.0033 20.5308 24.4314 20.6019 24.0445 20.9373C24.0364 20.9443 24.0285 20.9513 24.0206 20.9585L23.9974 20.9803C23.9846 20.9926 23.9721 21.0052 23.9597 21.0182C23.9567 21.0213 23.9538 21.0244 23.9509 21.0276L23.9597 21.0182C23.9532 21.025 23.9468 21.032 23.9404 21.039L23.9509 21.0276C23.9437 21.0352 23.9367 21.0429 23.9298 21.0508L23.9404 21.039C23.933 21.0471 23.9256 21.0554 23.9184 21.0638L23.9298 21.0508C23.9224 21.0591 23.9152 21.0675 23.908 21.0761L23.9184 21.0638C23.9113 21.0721 23.9042 21.0805 23.8972 21.0891L23.908 21.0761C23.8859 21.1024 23.8648 21.1299 23.8447 21.1583C23.8424 21.1616 23.8401 21.1649 23.8377 21.1683L23.8447 21.1583C23.8232 21.1889 23.8028 21.2206 23.7839 21.2535C23.7782 21.2633 23.7727 21.2732 23.7673 21.2831C23.7652 21.2869 23.7632 21.2907 23.7612 21.2944L23.7673 21.2831C23.7613 21.2941 23.7555 21.3052 23.7499 21.3164L23.7612 21.2944C23.7557 21.3049 23.7503 21.3155 23.7451 21.3261L23.7499 21.3164C23.7452 21.3256 23.7407 21.335 23.7363 21.3444L23.7451 21.3261C23.7396 21.3372 23.7343 21.3483 23.7292 21.3595L23.7363 21.3444C23.7255 21.3672 23.7154 21.3903 23.7061 21.4135C23.7047 21.4169 23.7034 21.4202 23.7021 21.4235L23.7061 21.4135C23.6881 21.4585 23.6728 21.5043 23.6604 21.5505C23.6588 21.5563 23.6573 21.562 23.6559 21.5677L23.6604 21.5505C23.6575 21.561 23.6548 21.5715 23.6523 21.5821L23.6559 21.5677C23.6533 21.5778 23.6509 21.588 23.6485 21.5982L23.6523 21.5821C23.6494 21.594 23.6467 21.6059 23.6442 21.6178L23.6485 21.5982C23.6461 21.6091 23.6437 21.6201 23.6416 21.631L23.6442 21.6178C23.6422 21.6274 23.6403 21.637 23.6385 21.6467L23.6416 21.631C23.5415 22.1357 23.7658 22.6698 24.2361 22.9414C24.8271 23.2826 25.5828 23.0801 25.924 22.4891ZM13.7246 29.5324C14.407 29.5324 14.9602 28.9793 14.9602 28.2969C14.9602 27.7744 14.6359 27.3277 14.1777 27.147C14.1744 27.1456 14.171 27.1443 14.1676 27.143L14.1777 27.147C14.1693 27.1437 14.1608 27.1404 14.1523 27.1373L14.1676 27.143C14.1576 27.1391 14.1476 27.1354 14.1374 27.1319L14.1523 27.1373C14.1427 27.1338 14.1331 27.1304 14.1235 27.1271L14.1374 27.1319C14.1273 27.1283 14.1171 27.1248 14.1069 27.1215L14.1235 27.1271C14.1128 27.1234 14.102 27.1199 14.0912 27.1166L14.1069 27.1215C14.0963 27.1181 14.0857 27.1148 14.075 27.1116L14.0912 27.1166C14.0819 27.1137 14.0724 27.1109 14.063 27.1082L14.075 27.1116C14.0647 27.1086 14.0544 27.1057 14.0441 27.1029L14.063 27.1082C14.0518 27.105 14.0406 27.102 14.0293 27.0991L14.0441 27.1029C14.019 27.0963 13.9936 27.0903 13.9679 27.0852C13.9625 27.0841 13.9571 27.0831 13.9517 27.0821L13.9679 27.0852C13.9582 27.0833 13.9484 27.0814 13.9385 27.0797L13.9517 27.0821C13.9406 27.08 13.9294 27.0781 13.9182 27.0763L13.9385 27.0797C13.9267 27.0777 13.9148 27.0758 13.9029 27.074L13.9182 27.0763C13.9104 27.0751 13.9025 27.0739 13.8946 27.0729L13.9029 27.074C13.8906 27.0723 13.8783 27.0707 13.866 27.0693L13.8946 27.0729C13.8837 27.0714 13.8728 27.07 13.8619 27.0688L13.866 27.0693C13.8556 27.0681 13.8452 27.067 13.8347 27.0661L13.8619 27.0688C13.8501 27.0675 13.8383 27.0664 13.8264 27.0654L13.8347 27.0661C13.8231 27.0651 13.8115 27.0642 13.7998 27.0635L13.8264 27.0654C13.8152 27.0645 13.8038 27.0637 13.7925 27.0631L13.7998 27.0635C13.7887 27.0629 13.7777 27.0623 13.7666 27.062L13.7925 27.0631C13.77 27.0619 13.7474 27.0613 13.7246 27.0613L13.691 27.0617C13.6881 27.0618 13.6853 27.0619 13.6825 27.062L13.6909 27.0617C13.6795 27.062 13.668 27.0625 13.6567 27.0631L13.6825 27.062C13.6714 27.0623 13.6604 27.0628 13.6493 27.0635L13.6567 27.0631C13.6453 27.0637 13.634 27.0645 13.6227 27.0654L13.6493 27.0635C13.6376 27.0642 13.626 27.0651 13.6144 27.0661L13.6227 27.0654C13.6108 27.0664 13.599 27.0675 13.5872 27.0688L13.6144 27.0661C13.6039 27.067 13.5935 27.0681 13.5832 27.0693L13.5872 27.0688C13.5761 27.07 13.565 27.0714 13.554 27.0729L13.5832 27.0693C13.5711 27.0706 13.5591 27.0722 13.5472 27.0739L13.554 27.0729C13.5459 27.0741 13.5379 27.0753 13.5298 27.0765L13.5472 27.0739C13.5349 27.0757 13.5226 27.0776 13.5105 27.0797L13.5298 27.0765C13.52 27.0781 13.5102 27.0798 13.5005 27.0815L13.5105 27.0797C13.5004 27.0815 13.4904 27.0834 13.4804 27.0854L13.5005 27.0815C13.473 27.0866 13.4457 27.0925 13.4188 27.0994C13.4149 27.1004 13.4109 27.1014 13.407 27.1025L13.4188 27.0994C13.4078 27.1022 13.3968 27.1051 13.3858 27.1082L13.407 27.1025C13.3967 27.1052 13.3866 27.108 13.3765 27.111L13.3858 27.1082C13.376 27.111 13.3661 27.114 13.3564 27.117L13.3765 27.111C13.3652 27.1143 13.3541 27.1177 13.343 27.1213L13.3564 27.117C13.3461 27.1202 13.3359 27.1235 13.3257 27.127L13.343 27.1213C13.3325 27.1247 13.322 27.1283 13.3116 27.1319L13.3257 27.127C13.3161 27.1303 13.3064 27.1337 13.2969 27.1372L13.3116 27.1319C13.3014 27.1356 13.2912 27.1393 13.2811 27.1432L13.2969 27.1372C13.2887 27.1402 13.2805 27.1433 13.2723 27.1465L13.2811 27.1432C12.8178 27.3215 12.489 27.7708 12.489 28.2969C12.489 28.9793 13.0422 29.5324 13.7246 29.5324Z" fill="#276CFF"/>
<path fill-rule="evenodd" clip-rule="evenodd" d="M75.8561 6.61133C81.1356 6.61133 84.9241 10.5411 84.9241 15.3985V15.4473C84.9241 20.3047 81.0867 24.2832 75.8072 24.2832C70.5277 24.2832 66.7392 20.3534 66.7392 15.4961V15.4473C66.7392 10.59 70.5766 6.61133 75.8561 6.61133ZM42.3855 6.66834C44.873 6.66834 46.9946 7.44866 48.7261 8.8387L46.7752 11.6675C45.2631 10.6189 43.7755 9.98484 42.3367 9.98484C40.8979 9.98484 40.1419 10.6433 40.1419 11.4724V11.5211C40.1419 12.6429 40.8734 13.0087 43.8243 13.7646C47.2873 14.667 49.2383 15.9107 49.2383 18.8857V18.9345C49.2383 22.3242 46.6532 24.2262 42.9708 24.2262C40.3857 24.2262 37.7763 23.324 35.7278 21.495L37.947 18.8369C39.4834 20.105 41.093 20.9098 43.0439 20.9098C44.5803 20.9098 45.507 20.3001 45.507 19.3003V19.2515C45.507 18.3005 44.9217 17.8128 42.0684 17.0811C38.6299 16.2033 36.4106 15.2522 36.4106 11.8625V11.8137C36.4106 8.71679 38.8981 6.66834 42.3855 6.66834ZM116.392 6.89638V18.0753C116.392 22.2248 113.954 24.2262 110.345 24.2262C107.688 24.2262 105.933 23.0546 104.762 21.6634L107.127 19.0273C108.102 20.1012 109.053 20.7359 110.248 20.7359C111.662 20.7359 112.54 19.8816 112.54 17.9045V10.7157L106.929 10.7158V6.89638H116.392ZM65.2 6.89638V10.3656H60.0081V23.9983H56.2543V10.3656H51.0624V6.89638H65.2ZM95.9259 6.89638C99.9526 6.89638 102.369 9.02187 102.369 12.5399V12.5888C102.369 15.3495 100.88 17.0842 98.708 17.8904L102.881 23.9983H98.4884L94.8277 18.5257H91.8748V23.9983H88.1165V6.89638H95.9259ZM75.8072 10.0887C72.7753 10.0887 70.6726 12.4757 70.6726 15.3986V15.4473C70.6726 18.3701 72.8242 20.8059 75.8561 20.8059C78.888 20.8059 80.9907 18.4188 80.9907 15.496V15.4473C80.9907 12.5244 78.8391 10.0887 75.8072 10.0887ZM95.6032 10.3167H91.8789V15.2192H95.6763C97.502 15.2192 98.5487 14.2436 98.5487 12.8046V12.7559C98.5487 11.146 97.4289 10.3167 95.6032 10.3167Z" fill="#091C45"/>
</svg>
