<svg width="85" height="30" viewBox="0 0 85 30" fill="none" xmlns="http://www.w3.org/2000/svg">
<path d="M80.625 0C82.489 0 84.0064 1.48357 84.061 3.33431L84.0625 3.4375V26.5625C84.0625 28.4265 82.5789 29.9439 80.7282 29.9985L80.625 30H3.4375C1.57354 30 0.0560832 28.5164 0.00151921 26.6657L0 26.5625V3.4375C0 1.57354 1.48357 0.0560832 3.33431 0.00151921L3.4375 0H80.625ZM80.625 1.25H3.4375C2.25814 1.25 1.29677 2.1833 1.25166 3.3516L1.25 3.4375V26.5625C1.25 27.7419 2.1833 28.7032 3.35161 28.7483L3.4375 28.75H80.625C81.8044 28.75 82.7657 27.8167 82.8109 26.6484L82.8125 26.5625V3.4375C82.8125 2.25814 81.8792 1.29677 80.7109 1.25166L80.625 1.25ZM26.0813 16.1188C28.0701 16.1188 29.5525 17.5747 29.6048 19.4119L29.6063 19.5313C29.6063 21.4156 28.0875 22.9438 26.0625 22.9438C24.0737 22.9438 22.5912 21.4878 22.5389 19.6506L22.5375 19.5313C22.5375 17.6469 24.0563 16.1188 26.0813 16.1188ZM10.4719 16.1375C11.5344 16.1375 12.3758 16.4096 13.069 16.9295L13.1719 17.0094L12.2625 18.2938C11.6625 17.8719 11.0063 17.6469 10.425 17.6469C10.0103 17.6469 9.7949 17.813 9.77099 18.0279L9.76875 18.0688V18.0875C9.76875 18.3768 9.97797 18.5092 10.8083 18.7032L10.9031 18.725C12.3748 19.0449 13.3028 19.5164 13.3483 20.678L13.35 20.7875C13.35 22.1281 12.2906 22.925 10.6969 22.925C9.58281 22.925 8.52041 22.5892 7.7242 21.9259L7.62188 21.8375L8.63438 20.6281C9.28125 21.1438 10.0031 21.4156 10.7625 21.4156C11.2229 21.4156 11.4826 21.2651 11.5101 21.0114L11.5125 20.9656V20.9469C11.5125 20.6851 11.3126 20.5363 10.5025 20.3414L10.2135 20.2737C8.94318 19.9689 7.97926 19.5638 7.93299 18.3489L7.93125 18.2375C7.93125 17.0188 8.89688 16.1375 10.4719 16.1375ZM44.2688 16.25V20.4125C44.2688 21.2375 44.0625 21.8188 43.6219 22.2594C43.1906 22.6906 42.5719 22.925 41.8219 22.925C40.7205 22.925 40.0277 22.4816 39.5677 21.8879L39.5156 21.8188L40.6875 20.7125C41.0063 21.0969 41.3063 21.3219 41.7094 21.3219C42.1488 21.3219 42.4338 21.0388 42.4577 20.4809L42.4594 20.4031V16.25H44.2688ZM73.2844 16.1562C74.1928 16.1562 74.8559 16.4016 75.4906 16.8843L75.5906 16.9625L75.1594 17.5344C74.55 17.0375 73.9406 16.8219 73.2656 16.8219C72.4125 16.8219 71.8688 17.2906 71.8688 17.8906C71.8688 18.5188 72.2063 18.8656 73.65 19.175C75.1125 19.4938 75.7875 20.0281 75.7875 21.0406C75.7875 22.175 74.85 22.9063 73.5469 22.9063C72.5536 22.9063 71.7311 22.5902 70.9734 21.9499L70.8656 21.8563L71.325 21.3125C72.0094 21.9312 72.6656 22.2406 73.575 22.2406C74.4563 22.2406 75.0375 21.7812 75.0375 21.1156C75.0375 20.5146 74.7279 20.17 73.4468 19.8844L73.3313 19.8594C71.8219 19.5312 71.1281 19.0438 71.1281 17.9563C71.1281 16.9062 72.0375 16.1562 73.2844 16.1562ZM65.9156 16.25C67.2094 16.25 68.0531 16.8875 68.0531 17.8906C68.0531 18.7531 67.5281 19.1938 67.0125 19.4188C67.7906 19.6531 68.4188 20.1031 68.4188 21.0125C68.4188 22.1185 67.5186 22.7789 66.1442 22.8113L66.0375 22.8125H63.1219V16.25H65.9156ZM57.4313 16.2031L60.4219 22.8125H59.625L58.8563 21.0781H55.2844L54.5063 22.8125H53.7469L56.7375 16.2031H57.4313ZM47.8406 16.25V22.1281H51.5344V22.8125H47.1V16.25H47.8406ZM35.0625 16.25C36.0656 16.25 36.7594 16.5125 37.2 16.9625C37.5604 17.3141 37.7559 17.781 37.7789 18.371L37.7813 18.5094C37.7813 19.4767 37.2844 20.1301 36.5176 20.4866L36.4313 20.525L37.9969 22.8125H35.8969L34.575 20.825H33.7781V22.8125H31.9594V16.25H35.0625ZM20.8406 16.25V17.8438H18.8719V22.8125H17.0531V17.8438H15.0844V16.25H20.8406ZM65.925 19.8313H63.8531V22.1469H66.0563C67.05 22.1469 67.6688 21.7062 67.6688 20.9656C67.6688 20.267 67.1068 19.8582 66.034 19.8325L65.925 19.8313ZM26.0625 17.7594C25.098 17.7594 24.4426 18.5189 24.4048 19.4293L24.4031 19.5313C24.4031 20.4781 25.0875 21.3031 26.0813 21.3031C27.0549 21.3031 27.7106 20.5436 27.7483 19.6332L27.75 19.5313C27.75 18.5844 27.0656 17.7594 26.0625 17.7594ZM57.075 17.0656L55.575 20.4125H58.5656L57.075 17.0656ZM34.9688 17.825H33.7781V19.4H34.9781C35.57 19.4 35.9217 19.1255 35.9511 18.6832L35.9531 18.6031C35.9531 18.109 35.6087 17.8473 35.0437 17.8264L34.9688 17.825ZM65.85 16.9156H63.8531V19.175H65.7938C66.6844 19.175 67.3031 18.7719 67.3031 17.9938C67.3031 17.3601 66.8225 16.945 65.9455 16.9171L65.85 16.9156ZM17.6797 7.25C19.3438 7.25 20.4609 8.55469 20.4609 10.0703C20.4609 11.5859 19.3281 12.9063 17.6641 12.9063C16 12.9063 14.8828 11.6016 14.8828 10.0859C14.8828 8.57031 16.0156 7.25 17.6797 7.25ZM26.7109 7.32812L28.2109 11.8984L29.7734 7.34375H30.4219L28.4688 12.8516H27.9453L26.4453 8.41406L24.9375 12.8516H24.4219L22.4688 7.34375H23.1406L24.7031 11.8984L26.2031 7.32812H26.7109ZM71.5469 7.34375L73.3906 10.0781L75.25 7.34375H75.9688L73.6953 10.6406V12.8125H73.0703V10.6484L70.7969 7.34375H71.5469ZM66.875 7.34375C67.9531 7.34375 68.6563 7.875 68.6563 8.71094C68.6563 9.42969 68.2188 9.79688 67.7891 9.98438C68.4375 10.1797 68.9609 10.5547 68.9609 11.3125C68.9609 12.2308 68.2163 12.7805 67.078 12.8111L66.9766 12.8125H64.5469V7.34375H66.875ZM55.1797 7.34375C56.8984 7.34375 58.0859 8.52344 58.0859 10.0703C58.0859 11.5856 56.9464 12.7636 55.2843 12.811L55.1797 12.8125H53.2813V7.34375H55.1797ZM50.5938 7.34375V7.90625H47.2578V9.77344H50.2422V10.3359H47.2578V12.25H50.6328V12.8125H46.6406V7.34375H50.5938ZM41.9375 7.34375C43.1406 7.34375 43.9141 7.99219 43.9141 8.97656C43.9141 9.86016 43.33 10.386 42.5148 10.5612L42.4297 10.5781L44.1094 12.8125H43.3516L41.7656 10.6875H40.2031V12.8125H39.5859V7.34375H41.9375ZM36.8984 7.34375V7.90625H33.5625V9.77344H36.5469V10.3359H33.5625V12.25H36.9375V12.8125H32.9453V7.34375H36.8984ZM10.5469 7.34375C11.7813 7.34375 12.5938 8 12.5938 9.08594C12.5938 10.2422 11.6605 10.8503 10.5368 10.8815L10.4453 10.8828H9.11719V12.8125H8.5V7.34375H10.5469ZM17.6641 7.82031C16.4141 7.82031 15.5234 8.82031 15.5234 10.0703C15.5234 11.3203 16.4297 12.3359 17.6797 12.3359C18.9297 12.3359 19.8203 11.3359 19.8203 10.0859C19.8203 8.83594 18.9141 7.82031 17.6641 7.82031ZM66.8828 10.3281H65.1563V12.2578H66.9922C67.8203 12.2578 68.336 11.8906 68.336 11.2734C68.336 10.6926 67.8698 10.3521 66.9798 10.3293L66.8828 10.3281ZM55.1797 7.91406H53.8984V12.2422H55.1797C56.5625 12.2422 57.4453 11.3047 57.4453 10.0859C57.4453 8.89621 56.604 7.9596 55.2776 7.91567L55.1797 7.91406ZM10.5 7.91406H9.11719V10.3203H10.4688C11.375 10.3203 11.9688 9.83594 11.9688 9.10938C11.9688 8.34661 11.4212 7.94157 10.5873 7.91542L10.5 7.91406ZM41.8906 7.91406H40.2031V10.1328H41.8828C42.7031 10.1328 43.2891 9.71094 43.2891 9C43.2891 8.34375 42.8084 7.94241 41.9806 7.91551L41.8906 7.91406ZM66.8203 7.89844H65.1563V9.78125H66.7735C67.5156 9.78125 68.0313 9.44531 68.0313 8.79688C68.0313 8.27103 67.634 7.92577 66.9089 7.89999L66.8203 7.89844Z" fill="#2583FF"/>
</svg>
