<?xml version="1.0" encoding="utf-8"?>
<!-- Generator: Adobe Illustrator 16.0.4, SVG Export Plug-In . SVG Version: 6.00 Build 0)  -->
<!DOCTYPE svg PUBLIC "-//W3C//DTD SVG 1.1//EN" "http://www.w3.org/Graphics/SVG/1.1/DTD/svg11.dtd">
<svg version="1.1" id="Layer_1" xmlns="http://www.w3.org/2000/svg" xmlns:xlink="http://www.w3.org/1999/xlink" x="0px" y="0px"
	 width="164.75px" height="18px" viewBox="0 0 164.75 18" enable-background="new 0 0 164.75 18" xml:space="preserve">
<g>
	<defs>
		<path id="SVGID_1_" d="M156.289,9.26c0,1.439,0.836,2.145,1.817,2.145c0.968,0,1.896-0.705,1.896-2.145
			c0-1.452-0.902-2.144-1.869-2.144C157.164,7.116,156.289,7.808,156.289,9.26z M161.885,9.26c0,2.275-1.674,3.74-3.777,3.74
			c-2.092,0-3.674-1.465-3.674-3.74c0-2.289,1.633-3.74,3.725-3.74S161.885,6.971,161.885,9.26z M152.19,4.775
			c-0.651,0-1.123-0.471-1.123-1.071c0-0.603,0.472-1.072,1.123-1.072c0.642,0,1.125,0.471,1.125,1.072
			C153.315,4.304,152.832,4.775,152.19,4.775z M151.264,12.881V5.638h1.831v7.243H151.264z M149.795,11.9
			c0,0.602-0.471,1.07-1.111,1.07c-0.666,0-1.137-0.469-1.137-1.07s0.471-1.072,1.137-1.072
			C149.324,10.828,149.795,11.299,149.795,11.9z M146.365,10.605c-0.394,1.334-1.597,2.395-3.388,2.395
			c-2.104,0-3.635-1.465-3.635-3.74c0-2.289,1.491-3.74,3.635-3.74c2.092,0,3.569,1.426,3.569,3.583
			c0,0.234-0.014,0.471-0.053,0.705h-5.295c0.092,1.072,0.824,1.674,1.738,1.674c0.785,0,1.217-0.393,1.451-0.875h1.977V10.605z
			 M142.927,7.024c-0.876,0-1.569,0.562-1.714,1.557h3.438C144.625,7.625,143.867,7.024,142.927,7.024z M136.66,9.273v3.607h-1.83
			V5.638h1.83v1.124c0.457-0.745,1.217-1.229,2.223-1.229v1.922h-0.483C137.314,7.456,136.66,7.875,136.66,9.273z M131.843,9.26
			c0-1.374-0.915-2.131-1.923-2.131c-0.979,0-1.908,0.731-1.908,2.104c0,1.373,0.929,2.158,1.908,2.158
			C130.928,11.391,131.843,10.633,131.843,9.26z M126.143,9.232c0-2.261,1.465-3.712,3.309-3.712c1.162,0,1.961,0.55,2.393,1.151
			V5.638h1.843v7.243h-1.843v-1.059c-0.432,0.629-1.256,1.178-2.405,1.178C127.606,13,126.143,11.496,126.143,9.232z"/>
	</defs>
	<clipPath id="SVGID_2_">
		<use xlink:href="#SVGID_1_"  overflow="visible"/>
	</clipPath>
	<rect x="121.143" y="-2.369" clip-path="url(#SVGID_2_)" fill="#071A33" width="45.742" height="20.369"/>
</g>
<g>
	<defs>
		<path id="SVGID_3_" d="M109.588,10.617c-0.394,1.332-1.596,2.393-3.387,2.393c-2.104,0-3.636-1.465-3.636-3.74
			c0-2.288,1.491-3.739,3.636-3.739c2.092,0,3.568,1.426,3.568,3.583c0,0.235-0.014,0.472-0.052,0.707h-5.296
			c0.092,1.07,0.824,1.674,1.738,1.674c0.785,0,1.217-0.393,1.451-0.875h1.977V10.617z M106.149,7.036
			c-0.876,0-1.569,0.562-1.713,1.556h3.438C107.849,7.636,107.09,7.036,106.149,7.036z M99.412,9.27
			c0-1.373-0.916-2.131-1.922-2.131c-0.979,0-1.908,0.732-1.908,2.105c0,1.373,0.929,2.156,1.908,2.156
			C98.496,11.402,99.412,10.643,99.412,9.27z M93.711,9.245c0-2.263,1.465-3.714,3.32-3.714c0.954,0,1.87,0.445,2.366,1.125V3.217
			h1.854v9.675h-1.854V11.82c-0.432,0.666-1.241,1.189-2.379,1.189C95.176,13.01,93.711,11.506,93.711,9.245z M90.556,9.27
			c0-1.373-0.915-2.131-1.922-2.131c-0.979,0-1.909,0.732-1.909,2.105c0,1.373,0.93,2.156,1.909,2.156
			C89.641,11.402,90.556,10.643,90.556,9.27z M84.855,9.245c0-2.263,1.465-3.714,3.309-3.714c1.162,0,1.961,0.55,2.393,1.151V5.649
			H92.4v7.244h-1.844v-1.061c-0.432,0.629-1.255,1.178-2.405,1.178C86.32,13.01,84.855,11.506,84.855,9.245z M81.883,9.284v3.609
			h-1.83V5.649h1.83v1.124c0.458-0.745,1.217-1.229,2.223-1.229v1.922h-0.482C82.537,7.466,81.883,7.885,81.883,9.284z M76.426,9.27
			c0-1.373-0.914-2.131-1.922-2.131c-0.98,0-1.908,0.732-1.908,2.105c0,1.373,0.928,2.156,1.908,2.156
			C75.512,11.402,76.426,10.643,76.426,9.27z M70.727,9.245c0-2.263,1.464-3.714,3.309-3.714c1.137,0,1.961,0.523,2.392,1.151V5.649
			h1.844v7.294c0,1.961-1.202,3.518-3.582,3.518c-2.039,0-3.465-1.02-3.647-2.68h1.817c0.185,0.652,0.863,1.084,1.777,1.084
			c1.008,0,1.791-0.574,1.791-1.922V11.82c-0.431,0.627-1.255,1.189-2.392,1.189C72.19,13.01,70.727,11.506,70.727,9.245z
			 M68.498,4.787c-0.652,0-1.123-0.472-1.123-1.072c0-0.603,0.471-1.072,1.123-1.072c0.642,0,1.125,0.471,1.125,1.072
			C69.623,4.315,69.14,4.787,68.498,4.787z M67.57,12.893V5.649h1.83v7.244H67.57z M63.945,9.27c0-1.373-0.916-2.131-1.923-2.131
			c-0.979,0-1.909,0.732-1.909,2.105c0,1.373,0.928,2.156,1.909,2.156C63.029,11.402,63.945,10.643,63.945,9.27z M58.244,9.245
			c0-2.263,1.465-3.714,3.321-3.714c0.955,0,1.87,0.445,2.367,1.125V3.217h1.856v9.675h-1.856V11.82
			c-0.433,0.666-1.242,1.189-2.379,1.189C59.709,13.01,58.244,11.506,58.244,9.245z M55.271,9.284v3.609H53.44V5.649h1.831v1.124
			c0.458-0.745,1.217-1.229,2.223-1.229v1.922h-0.483C55.926,7.466,55.271,7.885,55.271,9.284z M49.815,9.27
			c0-1.373-0.915-2.131-1.922-2.131c-0.979,0-1.909,0.732-1.909,2.105c0,1.373,0.928,2.156,1.909,2.156
			C48.9,11.402,49.815,10.643,49.815,9.27z M44.115,9.245c0-2.263,1.465-3.714,3.309-3.714c1.164,0,1.961,0.55,2.393,1.151V5.649
			h1.844v7.244h-1.844v-1.061c-0.432,0.629-1.255,1.178-2.406,1.178C45.58,13.01,44.115,11.506,44.115,9.245z M39.81,10.643v-3.49
			h-0.862V5.649h0.862V3.858h1.843V5.65h1.622v1.503h-1.622v3.503c0,0.484,0.196,0.693,0.771,0.693h0.85v1.543h-1.15
			C40.738,12.893,39.81,12.303,39.81,10.643z M29.578,7.477l-0.002,3.345l-4.877,2.025V1.904l4.877,2.025v3.345L29.578,7.477z
			 M23.534,1.42v15.388c0,0.473-0.383,0.855-0.856,0.855c-0.128,0-0.255-0.027-0.371-0.084l-3.167-1.52
			c-0.297-0.143-0.486-0.441-0.486-0.771V0.305c1.532,0.04,3.06,0.359,4.505,0.959L23.534,1.42z M12.607,1.658l0.491-0.224
			c1.399-0.637,2.887-1.006,4.39-1.105v16.48c0,0.473-0.384,0.855-0.857,0.855c-0.128,0-0.254-0.029-0.37-0.084l-3.167-1.521
			c-0.297-0.143-0.486-0.441-0.486-0.77L12.607,1.658L12.607,1.658z M11.442,2.188v14.621c0,0.473-0.383,0.855-0.856,0.855
			c-0.128,0-0.255-0.027-0.371-0.084l-3.167-1.52c-0.297-0.143-0.486-0.441-0.486-0.771V4.412L11.442,2.188z M5.397,4.941v11.868
			c0,0.473-0.384,0.855-0.857,0.855c-0.128,0-0.255-0.027-0.37-0.084l-3.167-1.52c-0.297-0.143-0.486-0.441-0.486-0.771V7.165
			L5.397,4.941z"/>
	</defs>
	<clipPath id="SVGID_4_">
		<use xlink:href="#SVGID_3_"  overflow="visible"/>
	</clipPath>
	<rect x="-4.482" y="-4.695" clip-path="url(#SVGID_4_)" fill="#2582FF" width="119.252" height="27.359"/>
</g>
<g>
	<path fill="#071A33" d="M116.221,7.656c-0.133-0.479-0.551-0.911-1.344-0.911c-0.717,0-1.262,0.342-1.258,0.835
		c-0.004,0.423,0.29,0.679,1.03,0.845l1.243,0.266c1.377,0.299,2.045,0.935,2.051,1.974c-0.006,1.381-1.291,2.326-3.113,2.326
		c-1.789,0-2.914-0.793-3.127-2.131l1.675-0.162c0.147,0.654,0.659,0.996,1.447,0.996c0.815,0,1.356-0.375,1.356-0.873
		c0-0.412-0.312-0.684-0.981-0.83l-1.243-0.262c-1.4-0.289-2.055-0.991-2.051-2.054c-0.004-1.348,1.191-2.211,2.947-2.211
		c1.709,0,2.695,0.787,2.933,2.021L116.221,7.656z"/>
</g>
<g>
	<path fill="#071A33" d="M120.512,12.93h-1.718V3.211h1.68v3.668h0.085c0.338-0.825,1.049-1.333,2.17-1.333
		c1.514,0,2.51,0.982,2.51,2.743v4.64h-1.718V8.555c0-0.982-0.532-1.557-1.434-1.557c-0.921,0-1.575,0.607-1.575,1.661V12.93z"/>
</g>
</svg>
